<svg width="10" height="6" viewBox="0 0 10 6" fill="none" xmlns="http://www.w3.org/2000/svg">
<path d="M5.46676 5.46695L5.46678 5.46693L8.9066 2.02708C9.16445 1.76922 9.16448 1.35113 8.9066 1.09334L5.46676 5.46695ZM5.46676 5.46695C5.33796 5.59569 5.16885 5.66022 5.00002 5.66022C4.8313 5.66022 4.66218 5.59585 4.53329 5.46707L4.53326 5.46704M5.46676 5.46695L4.53326 5.46704M4.53326 5.46704L1.09352 2.0272C1.09351 2.0272 1.0935 2.02719 1.0935 2.02718C0.835535 1.76933 0.835509 1.35124 1.0935 1.09345L4.53326 5.46704ZM7.97292 1.09332C8.23079 0.835575 8.64879 0.835545 8.90658 1.09332L1.09353 1.09341C1.35131 0.835651 1.76926 0.835687 2.0271 1.09343L2.02712 1.09344L5.00002 4.0664L7.97291 1.09334L7.97292 1.09332Z" fill="#C6C6C6" stroke="#C6C6C6" stroke-width="0.2"/>
</svg>
