<svg width="48" height="48" viewBox="0 0 48 48" fill="none" xmlns="http://www.w3.org/2000/svg">
<circle cx="24" cy="24" r="24" fill="#275349"/>
<path d="M19.7979 33.6675C20.5073 35.2597 22.1128 36.374 23.9765 36.374C25.8401 36.374 27.4456 35.2597 28.1551 33.6675H19.7979Z" fill="#688780"/>
<path d="M35.0431 31.9066H12.9103C12.4915 31.9066 12.108 31.6263 12.0209 31.2197C11.9347 30.8171 12.1195 30.4198 12.4945 30.2478C12.5835 30.1905 13.2532 29.7256 13.9238 28.3191C15.1553 25.736 15.4138 22.0974 15.4138 19.4998C15.4138 14.8129 19.255 11 23.9764 11C28.6866 11 32.5207 14.7946 32.5389 19.4661C32.5393 19.4773 32.5395 19.4885 32.5395 19.4998C32.5395 22.0974 32.798 25.736 34.0296 28.3191C34.7001 29.7256 35.3698 30.1906 35.4589 30.2478C35.8338 30.4198 36.0187 30.8171 35.9324 31.2197C35.8454 31.6262 35.4619 31.9066 35.0431 31.9066ZM35.4688 30.254H35.4694H35.4688Z" fill="#688780"/>
</svg>
