<svg width="34" height="34" viewBox="0 0 34 34" fill="none" xmlns="http://www.w3.org/2000/svg">
<path d="M17.0002 8.48413C12.3045 8.48413 8.48438 12.305 8.48438 17.0007C8.48438 21.6964 12.3045 25.5173 17.0002 25.5173C21.6951 25.5173 25.516 21.6972 25.516 17.0007C25.516 12.3042 21.6951 8.48413 17.0002 8.48413Z" fill="white"/>
<path d="M17 5.98087C16.0822 5.98087 15.3384 5.23702 15.3384 4.32002V1.6616C15.3384 0.743844 16.0822 0 17 0C17.9177 0 18.6616 0.743844 18.6616 1.6616V4.32002C18.6616 5.23702 17.917 5.98087 17 5.98087Z" fill="white"/>
<path d="M17 28.0184C16.0822 28.0184 15.3384 28.7623 15.3384 29.68V32.3377C15.3384 33.2562 16.0822 34.0001 17 34.0001C17.9177 34.0001 18.6616 33.2562 18.6616 32.3377V29.68C18.6616 28.7623 17.917 28.0184 17 28.0184Z" fill="white"/>
<path d="M24.7909 9.2084C24.1426 8.55942 24.1426 7.50764 24.7909 6.85866L26.6708 4.97873C27.319 4.3305 28.3715 4.3305 29.0205 4.97873C29.6695 5.62771 29.6695 6.68023 29.0205 7.32846L27.1406 9.2084C26.4924 9.85738 25.4406 9.85738 24.7909 9.2084Z" fill="white"/>
<path d="M9.20831 24.7922C8.55933 24.1425 7.50756 24.1425 6.85858 24.7922L4.97864 26.6714C4.33041 27.3196 4.32966 28.3729 4.97864 29.0212C5.62762 29.6694 6.68015 29.6694 7.32838 29.0212L9.20831 27.1405C9.85729 26.4922 9.85729 25.4397 9.20831 24.7922Z" fill="white"/>
<path d="M28.0186 17C28.0186 16.0822 28.7624 15.3384 29.6802 15.3384H32.3386C33.2563 15.3384 34.0002 16.0822 34.0002 17C34.0002 17.9177 33.2563 18.6608 32.3386 18.6608H29.6802C28.7624 18.6608 28.0186 17.9177 28.0186 17Z" fill="white"/>
<path d="M5.98087 17C5.98087 16.0822 5.23702 15.3384 4.31926 15.3384H1.6616C0.743844 15.3384 0 16.0822 0 17C0 17.9177 0.743844 18.6608 1.6616 18.6608H4.32002C5.23702 18.6608 5.98087 17.9177 5.98087 17Z" fill="white"/>
<path d="M24.7909 24.7923C25.4399 24.1441 26.4924 24.1441 27.1407 24.7923L29.0206 26.6723C29.6696 27.3197 29.6696 28.373 29.0206 29.0212C28.3716 29.6695 27.3199 29.6695 26.6709 29.0212L24.7909 27.1413C24.142 26.4923 24.142 25.4406 24.7909 24.7923Z" fill="white"/>
<path d="M9.2086 9.20845C9.85758 8.55947 9.85758 7.5077 9.2086 6.85872L7.32866 4.97953C6.67968 4.33055 5.6279 4.33055 4.97892 4.97953C4.32994 5.62776 4.32994 6.68029 4.97892 7.32852L6.85886 9.20845C7.50784 9.85819 8.55961 9.85819 9.2086 9.20845Z" fill="white"/>
</svg>
