<svg width="41" height="39" viewBox="0 0 41 39" fill="none" xmlns="http://www.w3.org/2000/svg">
<path d="M30.8078 29.2563C28.2062 29.2563 26.061 31.3559 26.061 34.0031C26.061 36.6047 28.1606 38.7499 30.8078 38.7499C33.4094 38.7499 35.5546 36.6503 35.5546 34.0031C35.5089 31.4015 33.4094 29.2563 30.8078 29.2563Z" fill="#3A3A43"/>
<path d="M39.1608 6.61808C39.0695 6.61808 38.9326 6.57244 38.7957 6.57244H10.0412L9.58481 3.51443C9.31096 1.50618 7.57656 0 5.52268 0H1.82568C0.821555 0 0 0.821555 0 1.82568C0 2.8298 0.821555 3.65136 1.82568 3.65136H5.52268C5.75089 3.65136 5.93345 3.83392 5.9791 4.06213L8.8089 23.323C9.17403 25.7421 11.2736 27.5677 13.7382 27.5677H32.7253C35.0987 27.5677 37.1525 25.879 37.6546 23.5512L40.6213 8.71761C40.8039 7.75913 40.1649 6.80065 39.1608 6.61808Z" fill="#3A3A43"/>
<path d="M19.1692 33.7749C19.0779 31.2646 16.9784 29.2563 14.4681 29.2563C11.8208 29.3933 9.81259 31.5841 9.90387 34.1857C9.99515 36.696 12.049 38.7042 14.5593 38.7042H14.6506C17.2522 38.5673 19.3061 36.3765 19.1692 33.7749Z" fill="#3A3A43"/>
</svg>
