<svg width="131" height="117" viewBox="0 0 131 117" fill="none" xmlns="http://www.w3.org/2000/svg">
<path d="M74 0C33.1948 0 0 33.1948 0 74C0 114.805 33.1948 148 74 148C114.805 148 148 114.805 148 74C148 33.1948 114.805 0 74 0ZM109.193 112.276C107.991 113.478 106.412 114.084 104.834 114.084C103.255 114.084 101.675 113.478 100.474 112.276L69.6404 81.4434C68.4807 80.2905 67.8337 78.7232 67.8337 77.0837V37C67.8337 33.59 70.5956 30.8337 74 30.8337C77.4044 30.8337 80.1663 33.59 80.1663 37V74.5307L109.193 103.557C111.604 105.969 111.604 109.865 109.193 112.276V112.276Z" fill="white" fill-opacity="0.05"/>
</svg>
