<svg width="20" height="20" viewBox="0 0 20 20" fill="none" xmlns="http://www.w3.org/2000/svg">
<g clip-path="url(#clip0_146_178)">
<path d="M8.12516 16.2501C6.17266 16.2501 4.5835 14.6609 4.5835 12.7084V4.16675H3.12516C1.861 4.16675 0.833496 5.19425 0.833496 6.45842V17.7084C0.833496 18.9726 1.861 20.0001 3.12516 20.0001H13.5418C14.806 20.0001 15.8335 18.9726 15.8335 17.7084V16.2501H8.12516Z" fill="white"/>
<path d="M19.1668 2.29167C19.1668 1.02583 18.141 0 16.8752 0H8.12516C6.85933 0 5.8335 1.02583 5.8335 2.29167V12.7083C5.8335 13.9742 6.85933 15 8.12516 15H16.8752C18.141 15 19.1668 13.9742 19.1668 12.7083V2.29167Z" fill="white"/>
</g>
<defs>
<clipPath id="clip0_146_178">
<rect width="20" height="20" fill="white"/>
</clipPath>
</defs>
</svg>
