<svg width="26" height="26" viewBox="0 0 26 26" fill="none" xmlns="http://www.w3.org/2000/svg">
<path d="M2.28947 5.63391C1.45115 6.8507 0.814046 8.21695 0.427734 9.6854H6.34119L2.28947 5.63391Z" fill="#29337A"/>
<path d="M9.35893 0.520386C7.86111 0.956592 6.47395 1.65264 5.25244 2.56051L9.35893 6.66701V0.520386Z" fill="#29337A"/>
<path d="M5.55811 23.6564C6.70387 24.4582 7.98394 25.0789 9.3592 25.4794V19.856L5.55811 23.6564Z" fill="#29337A"/>
<path d="M0.577148 16.8385C1.00699 18.2308 1.66566 19.5225 2.50744 20.6716L6.34053 16.8385H0.577148V16.8385Z" fill="#29337A"/>
<path d="M2.50419 5.33215C2.43152 5.4315 2.35989 5.53228 2.28969 5.6341L6.3414 9.68559H0.427948C0.332111 10.0503 0.253893 10.4221 0.189453 10.799H7.97145L2.50419 5.33215Z" fill="white"/>
<path d="M5.25684 23.4419C5.35575 23.5156 5.4574 23.5857 5.55834 23.6564L9.35943 19.8557V25.4792C9.72461 25.5859 10.0955 25.6781 10.4728 25.7522V18.2261L5.25684 23.4419Z" fill="white"/>
<path d="M0.288574 15.7251C0.369262 16.1024 0.464495 16.4739 0.577183 16.8385H6.34062L2.50753 20.6716C2.92442 21.2412 3.3867 21.7757 3.88899 22.2699L10.4338 15.7251H0.288574Z" fill="white"/>
<path d="M9.35967 0.520334V6.66696L5.25312 2.56068C4.687 2.98168 4.15781 3.44907 3.66748 3.95504L10.4728 10.7604V0.247314C10.0957 0.321854 9.72485 0.414233 9.35967 0.520334Z" fill="white"/>
<path d="M9.35934 16.7992L9.32031 16.8384H9.35934V16.7992Z" fill="#D32030"/>
<path d="M10.4336 15.725H10.4726V15.6858L10.4336 15.725Z" fill="#D32030"/>
<path d="M15.4365 10.7987H15.3989V10.8365L15.4365 10.7987Z" fill="#D32030"/>
<path d="M9.39774 9.68556L9.35938 9.64697V9.68556H9.39774Z" fill="#D32030"/>
<path d="M10.4727 10.7603V10.7987H10.5111L10.4727 10.7603Z" fill="#D32030"/>
<path d="M16.5122 22.6015V25.5156C17.9054 25.1256 19.2043 24.5109 20.366 23.7099L17.2085 20.5524C16.9562 21.4389 16.8638 21.8972 16.5122 22.6015Z" fill="#252F6C"/>
<path d="M17.2251 5.9539L20.6721 2.5069C19.4337 1.60002 18.0289 0.908907 16.5122 0.484009V3.47757C16.9176 4.28938 16.9517 4.90623 17.2251 5.9539Z" fill="#252F6C"/>
<path d="M23.4396 20.7472C24.3077 19.5794 24.9842 18.2613 25.4237 16.8384H19.5308L23.4396 20.7472Z" fill="#252F6C"/>
<path d="M25.5725 9.68559C25.178 8.18612 24.5218 6.79424 23.657 5.55835L19.5293 9.68559H25.5725Z" fill="#252F6C"/>
<path d="M17.9839 15.9454L18.8772 16.8387L23.1533 21.1148C23.2504 20.9932 23.3468 20.8722 23.4396 20.7476L19.5308 16.8387H25.4237C25.536 16.4744 25.6314 16.1027 25.7119 15.7253H18.0674C18.0549 15.8832 17.9989 15.7886 17.9839 15.9454Z" fill="#E7E7E7"/>
<path d="M17.0901 6.60588L20.9657 2.72986C20.8686 2.65456 20.7713 2.57963 20.6721 2.50696L17.2251 5.95396C17.2609 6.09025 17.0568 6.46629 17.0901 6.60588Z" fill="#E7E7E7"/>
<path d="M16.5123 3.23807V0.483827C16.1476 0.381623 15.7762 0.295008 15.3989 0.224365V1.56784C15.8132 2.01694 16.1845 2.58104 16.5123 3.23807Z" fill="#E7E7E7"/>
<path d="M17.8966 10.7987H25.8114C25.7471 10.4218 25.6687 10.0503 25.5729 9.68534H19.5297L23.6573 5.5581C23.2515 4.97841 22.8006 4.43325 22.3079 3.9281L17.6587 8.5769C17.7839 9.42017 17.8399 9.90989 17.8966 10.7987Z" fill="#E7E7E7"/>
<path d="M17.0205 20.3641L20.3661 23.7101C20.9226 23.3268 21.4466 22.9003 21.9356 22.4372L17.5349 18.0364C17.3945 18.8503 17.2278 19.6364 17.0205 20.3641Z" fill="#E7E7E7"/>
<path d="M15.3989 24.2777V25.775C15.7762 25.7048 16.1473 25.6178 16.5123 25.5156V22.6014C16.1843 23.2587 15.813 23.8292 15.3989 24.2777Z" fill="#E7E7E7"/>
<path d="M17.6584 8.577L22.3072 3.9282C21.8887 3.49836 21.44 3.09833 20.9654 2.72986L17.3125 6.38335C17.4749 7.06195 17.5486 7.83869 17.6584 8.577Z" fill="#D71F28"/>
<path d="M12.3511 0.0160277C12.5677 0.00554383 12.7836 0 12.9997 0C12.7823 0 12.566 0.00554383 12.3511 0.0160277Z" fill="#D32030"/>
<path d="M12.9998 26.0001C12.7837 26.0001 12.5677 25.9941 12.3516 25.9836C12.5665 25.9945 12.7824 26.0001 12.9998 26.0001Z" fill="#D32030"/>
<path d="M12.9995 26.0001C13.8197 26.0001 14.6207 25.9207 15.3986 25.7751V24.2777C14.7157 25.0179 13.9169 26.0001 12.9995 26.0001Z" fill="#D32030"/>
<path d="M25.8107 10.7987H17.9988C18.1023 12.4291 18.0898 14.1057 17.9614 15.725H25.7118C25.8994 14.8459 26 13.9349 26 13.0002C26 12.2493 25.9331 11.5148 25.8107 10.7987Z" fill="#D71F28"/>
<path d="M17.9838 15.9453C17.9115 16.7134 17.6599 17.3119 17.5347 18.0365L21.9353 22.4372C22.3707 22.0246 22.7777 21.5833 23.1529 21.1147L18.877 16.8384L17.9838 15.9453Z" fill="#D71F28"/>
<path d="M15.3992 1.66447V0.224553C14.6214 0.079425 13.8205 0 13 0C13.9174 0 14.7162 0.924503 15.3992 1.66447Z" fill="#D32030"/>
<path d="M16.5122 23.1637C16.8638 22.4593 17.1653 21.6483 17.4178 20.7619L16.5122 19.8563V23.1637Z" fill="#29337A"/>
<path d="M17.5305 5.64848C17.2567 4.6008 16.9176 3.64836 16.5122 2.83655V6.66635L17.5305 5.64848Z" fill="#29337A"/>
<path d="M18.2365 16.1974C18.2512 16.0406 18.2646 15.8832 18.2773 15.7251H17.7642L18.2365 16.1974Z" fill="white"/>
<path d="M16.5123 6.66638V2.83637C16.1843 2.17934 15.8132 1.61486 15.3989 1.16614V8.2966L17.6348 6.06068C17.6012 5.92109 17.5659 5.78436 17.5306 5.64807L16.5123 6.66638Z" fill="white"/>
<path d="M15.4365 10.7988H18.3143C18.2579 9.90999 18.168 9.03555 18.0429 8.1925L15.4365 10.7988Z" fill="white"/>
<path d="M15.3989 24.8338C15.8132 24.3847 16.1843 23.8206 16.5123 23.1636V19.8562L17.4179 20.7618C17.6256 20.0337 17.7999 19.256 17.9407 18.4421L15.399 15.9005L15.3989 24.8338Z" fill="white"/>
<path d="M15.3989 24.8337V15.9004L17.9405 18.4422C18.0655 17.7174 18.1639 16.9657 18.2359 16.1974L17.7636 15.7251H18.2767C18.405 14.1057 18.4175 12.4292 18.3141 10.7988H15.4363L18.0426 8.19251C17.9327 7.45398 17.7969 6.73965 17.6345 6.06083L15.399 8.29675V1.16629C14.716 0.426106 13.9171 0 12.9998 0C12.7836 0 12.5677 0.00554383 12.3512 0.0160277C11.7117 0.0480282 11.0847 0.126685 10.4726 0.247386V10.7604L3.66705 3.95505C3.2489 4.38654 2.85996 4.84629 2.504 5.33217L6.85744 9.68561L7.9712 10.799H0.189259C0.0673493 11.5149 0 12.2493 0 13.0002C0 13.9352 0.100996 14.8459 0.288169 15.7251H10.4336L3.88875 22.2699C4.31732 22.6909 4.77362 23.083 5.25665 23.4418L10.4724 18.226V25.7522C11.0845 25.8729 11.712 25.9515 12.3514 25.9836C12.5675 25.9941 12.7835 26 12.9996 26C13.9171 26 14.716 25.5739 15.3989 24.8337Z" fill="#E51D35"/>
</svg>
