<svg width="77" height="117" viewBox="0 0 77 117" fill="none" xmlns="http://www.w3.org/2000/svg">
<path d="M58.9263 67.2302C53.1186 64.0207 46.944 61.5753 40.8307 59.0383C37.2849 57.5711 33.892 55.8593 30.8964 53.4751C24.997 48.7678 26.128 41.1261 33.0361 38.0999C34.9924 37.2441 37.0404 36.969 39.1189 36.8467C47.1274 36.4188 54.7386 37.886 61.983 41.3706C65.5899 43.1129 66.782 42.5627 68.0046 38.803C69.2885 34.8293 70.3583 30.7945 71.5504 26.7902C72.3451 24.1003 71.367 22.3274 68.8299 21.1964C64.1838 19.1485 59.4153 17.6813 54.4024 16.8865C47.861 15.8778 47.861 15.8472 47.8305 9.27536C47.7999 0.0135855 47.7999 0.0135853 38.5076 0.0135853C37.1626 0.0135853 35.8177 -0.0169816 34.4727 0.0135853C30.1322 0.135853 29.3986 0.900025 29.2764 5.27109C29.2152 7.22737 29.2764 9.18366 29.2458 11.1705C29.2152 16.9782 29.1847 16.8865 23.6215 18.9039C10.1721 23.7946 1.85786 32.9647 0.971421 47.6368C0.176681 60.6277 6.96253 69.4005 17.6304 75.7889C24.2023 79.7321 31.4772 82.0552 38.4464 85.1424C41.1669 86.3345 43.7651 87.71 46.027 89.6052C52.7212 95.1378 51.4985 104.338 43.5511 107.823C39.3023 109.688 34.809 110.146 30.1934 109.565C23.0713 108.679 16.2549 106.814 9.83582 103.483C6.07609 101.526 4.97568 102.046 3.69187 106.111C2.59146 109.627 1.61333 113.172 0.635185 116.718C-0.679191 121.486 -0.190124 122.617 4.36434 124.849C10.1721 127.661 16.3771 129.098 22.7045 130.106C27.6563 130.901 27.8092 131.115 27.8703 136.25C27.9009 138.573 27.9009 140.927 27.9314 143.25C27.962 146.185 29.3681 147.896 32.3942 147.957C35.8177 148.019 39.2717 148.019 42.6952 147.927C45.5074 147.866 46.944 146.337 46.944 143.495C46.944 140.316 47.0969 137.106 46.9746 133.927C46.8218 130.687 48.2279 129.036 51.3457 128.181C58.5289 126.224 64.6423 122.373 69.3496 116.626C82.4322 100.732 77.4498 77.4701 58.9263 67.2302Z" fill="white" fill-opacity="0.05"/>
</svg>
