<svg width="30" height="30" viewBox="0 0 30 30" fill="none" xmlns="http://www.w3.org/2000/svg">
<g clip-path="url(#clip0_146_86)">
<path d="M18.7498 16.2504C18.0586 16.2504 17.4999 16.8104 17.4999 17.5003V22.5004C17.4999 23.1891 16.9398 23.7503 16.2498 23.7503H12.4998V5.00049C12.4998 3.93299 11.8198 2.97925 10.7974 2.62426L10.4273 2.50043H16.2498C16.9398 2.50043 17.4999 3.06165 17.4999 3.75058V7.50054C17.4999 8.19038 18.0586 8.75045 18.7498 8.75045C19.441 8.75045 19.9997 8.19038 19.9997 7.50054V3.75058C19.9997 1.6831 18.3172 0.000610352 16.2498 0.000610352H2.81247C2.76486 0.000610352 2.72504 0.0218962 2.6788 0.0280759C2.61861 0.0230406 2.56116 0.000610352 2.50005 0.000610352C1.12128 0.000610352 0 1.12166 0 2.50043V25.0002C0 26.0677 0.680001 27.0215 1.70241 27.3765L9.22499 29.8841C9.47996 29.9628 9.73356 30.0003 9.99997 30.0003C11.3787 30.0003 12.4998 28.879 12.4998 27.5003V26.2504H16.2498C18.3172 26.2504 19.9997 24.5679 19.9997 22.5004V17.5003C19.9997 16.8104 19.441 16.2504 18.7498 16.2504V16.2504Z" fill="#171721"/>
<path d="M29.6335 11.6165L24.6334 6.61659C24.2761 6.25908 23.7385 6.1515 23.2711 6.34513C22.8049 6.539 22.4998 6.99515 22.4998 7.50029V11.2503H17.4999C16.8098 11.2503 16.2498 11.8101 16.2498 12.5002C16.2498 13.1902 16.8098 13.7501 17.4999 13.7501H22.4998V17.5C22.4998 18.0052 22.8049 18.4613 23.2711 18.6552C23.7385 18.8488 24.2761 18.7412 24.6334 18.384L29.6335 13.3839C30.1221 12.8952 30.1221 12.1051 29.6335 11.6165V11.6165Z" fill="#171721"/>
</g>
<defs>
<clipPath id="clip0_146_86">
<rect width="30" height="30" fill="white"/>
</clipPath>
</defs>
</svg>
