<svg width="68" height="88" viewBox="0 0 68 88" fill="none" xmlns="http://www.w3.org/2000/svg">
<path fill-rule="evenodd" clip-rule="evenodd" d="M5.37273 55.763C4.83615 53.4928 4.32021 51.2227 3.78363 48.9319C13.4833 53.823 23.2037 58.7141 32.924 63.6053C23.2243 58.095 13.5246 52.6054 3.84554 47.1158C3.55662 43.8963 3.28833 40.6974 3.02004 37.4986C9.66537 42.4104 16.3313 47.3221 22.9767 52.2133C16.1456 46.1871 9.33517 40.1815 2.50409 34.1553C2.33899 29.9452 2.17389 25.7351 2.00879 21.525C8.81923 29.6975 15.6503 37.8701 21.4289 43.0089C27.228 48.1476 31.9747 50.2527 35.6895 51.5322C39.3836 52.8118 42.0459 53.2452 45.2447 53.5341C48.4642 53.8436 52.2203 53.9881 54.7381 54.5247C57.2352 55.0819 58.4735 56.0312 59.2577 56.9187C60.0213 57.7854 60.3103 58.611 60.4754 59.3333C60.6198 60.0556 60.6405 60.6541 61.0532 61.1081C61.466 61.5415 62.2502 61.8098 62.9725 62.367C63.6742 62.9242 64.314 63.7497 64.9537 64.5752C63.5091 64.2244 62.0438 63.8736 59.6498 63.9148C57.2765 63.9561 53.9745 64.4101 51.4361 65.4214C48.8976 66.412 47.1021 67.9392 45.4305 70.2712C43.7588 72.6239 42.1904 75.7609 40.6219 78.8978C43.2016 77.6183 45.7607 76.3594 48.3404 75.1005C34.0178 68.6615 19.6953 62.2225 5.37273 55.763Z" fill="url(#paint0_linear_146_101)"/>
<path fill-rule="evenodd" clip-rule="evenodd" d="M2.498 34.1562C2.51864 30.5446 2.53928 26.933 2.55991 23.3214C11.4548 33.0212 20.3496 42.7002 29.2444 52.4C20.04 41.5033 10.8356 30.5859 1.65186 19.6686C1.94078 24.4978 2.20907 29.327 2.498 34.1562Z" fill="#63FD88"/>
<path fill-rule="evenodd" clip-rule="evenodd" d="M3.8459 47.1154C3.78399 44.3499 3.74271 41.5845 3.6808 38.819C10.1198 43.2974 16.5381 47.7552 22.977 52.2129C16.0221 46.4963 9.08787 40.8003 2.13297 35.0836C2.11234 36.941 2.07106 38.819 2.02979 40.6971C2.62828 42.8228 3.22677 44.9691 3.8459 47.1154Z" fill="#63FD88"/>
<path fill-rule="evenodd" clip-rule="evenodd" d="M5.63409 55.3911C5.28325 53.5544 4.91177 51.7383 4.56093 49.9015C14.013 54.4624 23.465 59.044 32.9171 63.6049C21.9379 57.62 10.9586 51.6351 0 45.6501C1.15571 49.6539 2.31142 53.6782 3.48777 57.6819C13.9511 61.4793 24.4144 65.256 34.8983 69.0533C25.1367 64.4924 15.3751 59.9521 5.63409 55.3911Z" fill="#63FD88" fill-opacity="0.729412"/>
<path fill-rule="evenodd" clip-rule="evenodd" d="M19.8519 35.8486C19.5217 38.3045 19.8725 40.6984 20.7806 42.9273C21.7093 45.1768 23.1952 47.2818 24.6398 48.8297C26.1051 50.3775 27.5497 51.3681 28.5197 51.9872C29.5103 52.5857 30.0469 52.8334 30.5835 53.0604C29.5929 52.9366 28.6229 52.8127 27.6323 52.6064C26.6417 52.4 25.6304 52.1317 24.6398 51.8634C25.7336 53.2255 26.8274 54.5876 28.3959 55.5369C29.9643 56.4656 32.0075 56.9816 33.5347 57.2086C35.0619 57.4356 36.0731 57.3943 37.0843 57.353C35.5778 57.7864 34.0712 58.2198 32.8123 58.4675C31.5741 58.7358 30.5628 58.8183 29.5722 58.9009C30.955 59.3962 32.3377 59.9121 33.9474 59.974C35.5572 60.0359 37.3733 59.6645 39.0037 59.3343C40.6547 59.0247 42.0993 58.777 43.6884 58.7358C45.2775 58.6945 46.9904 58.8802 48.0842 59.0453C49.1987 59.1898 49.694 59.3343 50.1893 59.4581C49.4463 59.8915 48.724 60.3042 48.0842 60.717C47.4238 61.1504 46.8666 61.5425 46.3094 61.9552C48.7859 61.687 51.2624 61.398 53.7802 61.5219C56.3187 61.625 58.8777 62.1616 60.57 62.595C62.2623 63.0284 63.1085 63.3999 63.6863 63.7094C64.2848 64.0396 64.615 64.3079 64.9452 64.5762C64.6976 64.1016 64.4499 63.6269 63.9546 63.1316C63.4387 62.6363 62.6751 62.0997 62.1385 61.7489C61.6226 61.4187 61.3336 61.2536 61.1273 61.0885C60.9415 60.9234 60.8383 60.7376 60.7351 60.4281C60.632 60.0979 60.5288 59.6232 60.4049 59.0866C60.2811 58.5707 60.1366 57.9928 59.662 57.3324C59.1667 56.6514 58.3618 55.9084 57.2886 55.3512C56.2361 54.794 54.9359 54.4431 52.8722 54.1748C50.829 53.9065 48.043 53.7208 45.422 53.4525C42.8216 53.1842 40.407 52.8334 38.0956 51.6364C35.8048 50.4601 33.6379 48.4582 32.0488 45.961C30.4803 43.4639 29.469 40.5127 28.9531 37.933C28.4372 35.3739 28.4165 33.2276 28.6848 31.1019C28.9737 28.9969 29.5516 26.9331 30.1707 25.344C30.7692 23.7342 31.3883 22.6198 32.0075 21.4847C30.2945 22.2071 28.5816 22.9087 26.9306 24.0438C25.2796 25.1789 23.6905 26.768 22.411 28.8111C21.1314 30.8749 20.1614 33.3927 19.8519 35.8486Z" fill="#1200FF"/>
<path fill-rule="evenodd" clip-rule="evenodd" d="M35.168 19.2152C35.6014 19.6073 34.1774 21.0726 32.8978 23.5698C31.6183 26.0463 30.5039 29.5547 30.2768 33.1044C30.0705 36.6541 30.7309 40.2863 32.5676 43.3407C34.4044 46.4157 37.3968 48.9128 41.2561 50.4607C45.136 52.0085 49.9033 52.607 53.5149 53.4325C57.1471 54.258 59.6236 55.3312 60.6349 56.5488C61.6461 57.7458 61.1921 59.0872 60.9651 59.7476C60.7381 60.4287 60.7381 60.4287 60.5317 59.8921C60.3253 59.3555 59.8919 58.2824 58.7775 57.2917C57.6631 56.3218 55.8469 55.4137 52.9164 55.001C49.9652 54.6088 45.8996 54.6708 42.4737 54.1342C39.0479 53.6182 36.2411 52.5038 33.8265 50.4194C31.3913 48.3556 29.3069 45.3219 28.0892 42.3088C26.8716 39.2957 26.5414 36.3032 26.4795 33.7029C26.4176 31.1232 26.6446 28.9356 27.305 26.7686C27.9654 24.581 29.0592 22.4141 30.1737 20.2265C32.4438 19.5454 34.7346 18.8437 35.168 19.2152Z" fill="#0CBCCF"/>
<path fill-rule="evenodd" clip-rule="evenodd" d="M55.165 58.7126C55.7223 58.4856 56.2795 58.2379 56.6097 58.1141C56.9399 57.9696 57.0431 57.949 57.1463 57.949C57.2288 57.949 57.332 57.9902 57.3939 58.0522C57.4558 58.1141 57.4971 58.2173 57.5796 58.4649C57.6828 58.7126 57.8067 59.1047 57.9305 59.5174C57.4352 59.3523 56.9605 59.2079 56.4859 59.084C56.0318 58.9396 55.5984 58.8364 55.165 58.7126Z" fill="white"/>
<path fill-rule="evenodd" clip-rule="evenodd" d="M2.68863 17.6659C2.58545 13.9098 2.46162 10.1537 2.33779 6.41832C7.31148 13.7653 12.2852 21.133 17.2588 28.48C11.6041 18.9867 5.97003 9.49334 0.335938 0C1.12017 5.88174 1.9044 11.7635 2.68863 17.6659Z" fill="#63FD88"/>
<path d="M11.2052 81.3341C11.4735 81.4579 11.9482 81.4785 12.6292 81.4166C13.4341 81.3341 13.8468 80.9626 13.8468 80.2815L13.8675 79.7656C13.9706 78.1765 13.95 77.1653 13.8055 76.7319C13.5166 76.5048 13.0213 76.3604 12.3609 76.3397C11.9688 76.3191 11.5973 76.3397 11.2877 76.381L11.2052 81.3341ZM6.43789 73.76C7.9238 73.7188 9.14143 73.6981 10.132 73.6981C10.5861 73.6981 10.9988 73.6981 11.3497 73.7188H12.0926C14.5898 73.7394 16.0138 74.1728 16.344 75.0396L16.6123 76.381L16.6535 79.229L16.5504 80.3022C16.3233 81.2102 15.9106 81.85 15.3534 82.2628C14.4247 82.6962 13.2896 82.9025 11.9482 82.8819C11.6386 82.9025 11.3497 82.9025 11.102 82.8819C11.102 84.5948 11.1846 86.0601 11.2877 87.2984L7.69679 86.9682L7.94444 76.381L6.37598 76.2159C6.37598 75.3285 6.39661 74.5236 6.43789 73.76ZM19.0475 82.2215H20.0381L20.6573 82.2834L21.0287 82.2215L21.2145 82.593C21.1319 83.2121 21.0906 84.244 21.0906 85.6886V87.4222L20.4715 87.4841H17.4378C17.1488 87.2364 17.0044 86.9269 17.0044 86.5554V86.3697H18.3046L18.2426 85.7505L18.1807 82.4691L18.1188 82.2834L19.0475 82.2215ZM17.0663 80.4879C17.0663 79.9307 17.7473 79.5799 19.1094 79.4148C19.2126 79.3941 19.3364 79.3941 19.4603 79.3735C19.6666 79.3528 19.873 79.3322 20.0794 79.3322C20.2858 79.3322 20.4715 79.3528 20.6573 79.3735C21.07 79.4148 21.3796 79.4973 21.6272 79.6418C21.8542 79.7656 21.9987 79.9307 22.0193 80.0958V80.1164C22.0193 80.2196 21.9574 80.3435 21.8749 80.4673L21.6891 80.6324C21.5034 80.8181 21.2145 80.9626 20.843 81.0864C20.4715 81.2102 20.0588 81.3134 19.6254 81.3547C19.6047 81.3547 19.5635 81.3547 19.5428 81.3547C19.3364 81.396 19.1507 81.4166 18.9856 81.4166H18.8618L18.5935 81.3753C18.5316 81.3753 18.449 81.3547 18.3871 81.3547H18.3458C17.9124 81.3341 17.5616 81.2309 17.3346 81.0245C17.1695 80.9007 17.0869 80.7768 17.0663 80.6324V80.4879ZM22.9068 79.0226C22.948 78.5067 24.5165 78.1146 27.6328 77.8463C28.4583 77.8463 29.2013 77.9701 29.841 78.1971C30.811 78.8369 31.2857 79.7862 31.2857 81.0039L31.2031 85.3378L31.1618 85.668C30.7697 87.092 29.5315 87.8143 27.4677 87.8143H26.5184C25.1975 87.8143 24.2069 87.5254 23.5465 86.9682C22.7623 86.2046 22.3702 85.3997 22.3702 84.5742L22.6178 80.0545C22.6591 79.6831 22.7623 79.3322 22.9068 79.0226ZM25.8373 80.5705L26.0231 85.152V85.4203C26.0231 85.5854 26.3326 85.668 26.9518 85.668H27.3851C28.3964 85.668 28.9123 85.0901 28.9123 83.9551L29.0155 80.3022C28.9536 80.0545 28.7885 79.9101 28.4996 79.8482L26.7866 79.8069C26.3533 79.8069 26.0437 80.0545 25.8373 80.5705ZM33.8035 77.8257C34.0511 77.7225 34.34 77.6812 34.6702 77.6812H34.7734C36.0323 77.7225 37.0642 77.7844 37.8691 77.8876C39.0454 78.1146 39.7471 78.4035 39.9741 78.7956C40.3043 79.0639 40.4901 80.5911 40.4901 83.3772C40.4901 84.5535 40.4488 85.9363 40.3869 87.5666V87.8556C40.1599 87.9381 39.582 88 38.674 88C38.2199 88 37.6627 87.9794 37.0436 87.9588C36.961 87.8762 36.9817 85.1727 37.1055 79.8482C36.9817 79.4973 36.7959 79.3116 36.5689 79.2909C35.7021 79.2497 35.2481 79.4148 35.2481 79.8069L35.2275 79.9307L35.3307 84.7393L35.2481 85.2552L32.916 85.8744L32.7509 85.5854V82.7581V79.9307L31.6365 79.9513L31.6571 79.8069C31.7397 78.4861 31.9048 77.8257 32.1524 77.8257H33.8035ZM44.1017 83.501C44.0604 83.8931 44.0191 84.2646 44.0191 84.6361C43.9778 85.3378 44.2668 85.7093 44.8446 85.7505C45.4431 85.7712 45.794 85.5648 45.8971 85.1314L45.9178 85.0695C45.9384 84.8631 46.1242 84.7599 46.4956 84.7393C47.2799 84.7393 47.9816 84.7806 48.6007 84.8425C48.8277 84.8631 48.9309 85.1314 48.9103 85.6267C48.8896 86.6999 47.672 87.2364 45.278 87.2364C44.0604 87.2364 42.9872 87.0507 42.0792 86.6792C41.3569 86.3077 40.9647 85.7712 40.9028 85.0901C40.8616 84.5742 40.8409 84.0376 40.8409 83.5217C40.8409 82.9851 40.8616 82.4485 40.9028 81.9119C40.9441 81.5611 41.0267 81.1896 41.1918 80.7975C41.5426 80.0958 42.9047 79.745 45.2987 79.745H46.0416C47.7958 79.8069 48.8483 80.0545 49.1579 80.4879C49.4675 80.88 49.6119 81.5198 49.6119 82.4485V83.0057C49.6119 83.0883 49.6119 83.1502 49.5707 83.1915V83.6042L44.1017 83.501ZM46.1654 82.5517C46.1654 82.5517 46.1654 82.5311 46.1861 82.5311C46.1861 82.4485 46.1861 82.3659 46.1861 82.304C46.2067 82.2215 46.2067 81.9945 46.2067 81.6436V81.4992C46.2274 81.2102 46.1242 81.0658 45.8765 81.0658L45.2574 81.0451C44.9065 81.0451 44.6795 81.2102 44.597 81.5404C44.4731 81.8706 44.37 82.2008 44.308 82.5311L46.1654 82.5517ZM50.9121 81.0658L50.0247 80.8181L49.9834 80.6943C50.0453 79.0846 50.1898 78.2797 50.4374 78.2797L51.7583 78.1971C51.9853 78.0939 52.2329 78.0527 52.5631 78.032H54.2348C55.9477 78.0733 56.9796 78.2384 57.2892 78.5893C57.64 78.9401 57.8257 79.7656 57.8257 81.1277V81.3753L55.4318 81.4373C55.1016 81.4373 54.9365 81.396 54.9365 81.3341C54.8333 81.3341 54.7507 80.7768 54.6888 79.6624C54.565 79.5179 54.3999 79.4354 54.1935 79.456C53.4299 79.456 53.0584 79.6211 53.0584 79.972L53.0791 80.5292L53.0378 81.7881L52.914 85.0695L52.9346 85.7505C52.8108 85.895 52.3155 85.9982 51.4693 86.0395L50.7264 86.0807C50.7264 86.0807 50.7057 86.0807 50.6851 86.0807C50.6025 86.0807 50.52 85.9569 50.4581 85.6886V85.4616L50.974 81.7055L50.9121 81.0658ZM63.0058 85.5235C62.5311 85.5442 62.0565 85.5648 61.6024 85.5648C60.9214 85.5648 60.2816 85.5235 59.7038 85.4203C58.9608 85.214 58.5274 84.8631 58.4242 84.3884C58.2798 83.79 58.2178 83.1708 58.2178 82.5104C58.2178 82.3866 58.2178 82.2628 58.2385 82.1596C58.2591 81.8913 58.321 81.623 58.4655 81.3341C58.7751 80.7975 60.1372 80.4054 62.5518 80.1784L63.3154 80.0958C63.5011 80.0752 63.7075 80.0752 63.8932 80.0752V78.9401C63.8726 78.1971 63.5836 77.8463 63.0058 77.8876C62.6962 77.9082 62.4898 77.9288 62.3454 77.9908C62.1803 78.0527 62.1184 78.3622 62.1184 78.9195L62.2009 79.3322C62.2216 79.5592 62.0152 79.6624 61.6024 79.6831C60.715 79.7862 59.7244 79.8482 58.6512 79.9101C58.4449 79.9307 58.321 79.7243 58.321 79.3322L58.3004 79.1671C58.3829 78.3622 58.8163 77.6399 59.5593 77.0002C60.3023 76.6287 60.9833 76.4429 61.6437 76.4429H61.7675H61.9533C63.336 76.4429 64.533 76.5668 65.5649 76.7731C66.3285 77.1859 66.7206 77.578 66.7412 77.9701L66.8031 78.4448C66.8238 79.1671 66.865 80.0545 66.9063 81.1071C66.927 82.1596 66.8857 83.047 66.7412 83.8106C66.7412 83.9963 66.8031 84.0789 66.9889 84.0789L67.4635 84.0995C67.608 84.0995 67.6699 84.1821 67.6699 84.3059V84.3265C67.6493 84.6361 67.5874 84.9663 67.5254 85.2965C67.4842 85.4822 67.3603 85.5854 67.1952 85.5648L65.3998 85.5854C64.5123 85.5854 63.7281 85.5648 63.0058 85.5235ZM63.6249 82.0564C63.6249 82.0357 63.6249 82.0357 63.6249 82.0151C63.6043 81.9945 63.6043 81.9326 63.6043 81.8913C63.6043 81.8294 63.6043 81.7881 63.6043 81.7262C63.6043 81.6643 63.6043 81.623 63.6043 81.5611C63.6043 81.4992 63.6043 81.4785 63.6043 81.4373V81.3341C63.6043 81.1277 63.4805 81.0245 63.2328 81.0658L62.593 81.1071C62.2422 81.1483 62.0358 81.2928 61.9533 81.5198C61.6437 82.3247 61.5199 83.0676 61.5612 83.7693C61.5818 84.2853 61.8914 84.5123 62.4898 84.471C63.0883 84.4297 63.4392 84.2646 63.5217 83.9344V83.8931C63.5424 83.8312 63.5836 83.7693 63.6456 83.728L63.6249 82.0564Z" fill="white"/>
<defs>
<linearGradient id="paint0_linear_146_101" x1="10.1708" y1="43.8199" x2="33.7374" y2="61.4542" gradientUnits="userSpaceOnUse">
<stop stop-color="#276174"/>
<stop offset="1" stop-color="#33C58E"/>
</linearGradient>
</defs>
</svg>
