<svg width="48" height="48" viewBox="0 0 48 48" fill="none" xmlns="http://www.w3.org/2000/svg">
<circle cx="24" cy="24" r="24" fill="#275349"/>
<path d="M34.5067 17.4148L34.1388 17.5306L32.1794 17.7039L31.6259 18.5812L31.2243 18.4545L29.665 17.0589L29.4387 16.3331L29.1358 15.5591L28.1557 14.6865L26.9995 14.4619L26.9729 14.9872L28.1056 16.0845L28.6598 16.7325L28.0367 17.0558L27.5295 16.9074L26.7693 16.5927L26.7952 15.9842L25.7979 15.577L25.4667 17.0076L24.4616 17.2338L24.561 18.0318L25.8707 18.282L26.0969 17.0068L27.178 17.1654L27.6805 17.4576H28.4868L29.0387 18.5548L30.5018 20.0281L30.3946 20.6008L29.2149 20.4516L27.1764 21.4735L25.7086 23.2211L25.5176 23.9951H24.9908L24.0091 23.546L23.0557 23.9951L23.2929 24.9937L23.7077 24.5189L24.4373 24.4963L24.3864 25.3931L24.9908 25.5687L25.5943 26.2416L26.5799 25.9666L27.7056 26.143L29.0129 26.4919L29.6658 26.568L30.7727 27.8152L32.909 29.0624L31.5273 31.6827L30.0689 32.3557L29.5155 33.8531L27.405 35.2519L27.1803 36.0585C32.5755 34.7685 36.589 29.9576 36.589 24.2057C36.5874 21.6934 35.8202 19.3552 34.5067 17.4148Z" fill="#688780"/>
<path d="M25.7079 30.5856L24.8123 28.9374L25.6343 27.2371L24.8123 26.9931L23.8894 26.073L21.8447 25.6177L21.166 24.208V25.045H20.8669L19.1048 22.6733V20.7251L17.8132 18.6402L15.7622 19.0031H14.3805L13.6854 18.5509L14.5723 17.853L13.6877 18.0558C12.6216 19.8634 12 21.9607 12 24.2073C12 30.9469 17.504 36.413 24.2941 36.413C24.817 36.413 25.3298 36.3671 25.837 36.3065L25.7087 34.8277C25.7087 34.8277 26.2731 32.6317 26.2731 32.5571C26.2723 32.4817 25.7079 30.5856 25.7079 30.5856Z" fill="#688780"/>
<path d="M16.5686 15.9359L18.7527 15.6336L19.7594 15.0858L20.8921 15.4098L22.702 15.3104L23.322 14.3429L24.2261 14.4906L26.4219 14.2862L27.0271 13.6241L27.8803 13.0584L29.0874 13.2387L29.5274 13.1726C27.9375 12.4297 26.1683 12 24.2935 12C20.4772 12 17.065 13.7267 14.812 16.4379H14.8183L16.5686 15.9359ZM24.8133 13.2138L26.0689 12.5276L26.8752 12.99L25.708 13.872L24.5933 13.9831L24.0915 13.6599L24.8133 13.2138ZM21.0941 13.314L21.6483 13.5433L22.374 13.314L22.7693 13.994L21.0941 14.4307L20.2886 13.9629C20.2878 13.9629 21.0761 13.4594 21.0941 13.314Z" fill="#688780"/>
</svg>
