<svg width="27" height="27" viewBox="0 0 27 27" fill="none" xmlns="http://www.w3.org/2000/svg">
<circle cx="13.5" cy="13.5" r="13.5" fill="#171721"/>
<g clip-path="url(#clip0_146_217)">
<path d="M13.4998 13.3514C15.012 13.3514 16.2379 11.8624 16.2379 10.0257C16.2379 8.18894 15.8354 6.69995 13.4998 6.69995C11.1642 6.69995 10.7617 8.18894 10.7617 10.0257C10.7618 11.8624 11.9877 13.3514 13.4998 13.3514Z" fill="#646472"/>
<path d="M18.6658 18.295C18.6152 15.0953 18.1973 14.1836 14.9996 13.6064C14.9996 13.6064 14.5493 14.18 13.5002 14.18C12.451 14.18 12.0009 13.6064 12.0009 13.6064C8.83805 14.1772 8.39468 15.0755 8.3364 18.191C8.33166 18.4454 8.32948 18.4587 8.32861 18.4292C8.32878 18.4845 8.32903 18.5869 8.32903 18.7654C8.32903 18.7654 9.09035 20.3001 13.5002 20.3001C17.9101 20.3001 18.6715 18.7654 18.6715 18.7654C18.6715 18.6507 18.6716 18.5709 18.6717 18.5167C18.6708 18.535 18.669 18.4996 18.6658 18.295Z" fill="#646472"/>
<path d="M17.2998 12.7576C18.528 12.7576 19.5236 11.5483 19.5236 10.0566C19.5236 8.56478 19.1967 7.35547 17.2998 7.35547C16.9807 7.35547 16.7061 7.3898 16.47 7.45389C16.9081 8.26158 16.9681 9.24261 16.9681 10.0257C16.9681 10.9124 16.7278 11.7589 16.2852 12.4598C16.5894 12.6498 16.9341 12.7576 17.2998 12.7576Z" fill="#646472"/>
<path d="M21.4953 16.7728C21.454 14.1741 21.1147 13.4336 18.5175 12.9648C18.5175 12.9648 18.1519 13.4307 17.2998 13.4307C17.2646 13.4307 17.2304 13.4296 17.1968 13.4281C17.7382 13.6722 18.2307 14.0121 18.5934 14.5095C19.2205 15.3693 19.3647 16.5243 19.3944 18.2212C21.1417 17.8759 21.4998 17.1549 21.4998 17.1549C21.4998 17.0609 21.4998 16.9965 21.5 16.9524C21.4993 16.9679 21.4978 16.9401 21.4953 16.7728Z" fill="#646472"/>
<path d="M9.70029 12.7576C10.066 12.7576 10.4106 12.6497 10.715 12.4598C10.2724 11.7589 10.032 10.9124 10.032 10.0257C10.032 9.24257 10.0921 8.26154 10.5301 7.45389C10.294 7.3898 10.0194 7.35547 9.70029 7.35547C7.80338 7.35547 7.47656 8.56478 7.47656 10.0566C7.47656 11.5483 8.47219 12.7576 9.70029 12.7576Z" fill="#646472"/>
<path d="M9.80313 13.4281C9.76958 13.4296 9.73542 13.4307 9.7001 13.4307C8.84798 13.4307 8.48238 12.9648 8.48238 12.9648C5.8853 13.4336 5.54587 14.174 5.50474 16.7728C5.50206 16.9402 5.5007 16.9679 5.5 16.9524C5.50008 16.9964 5.50016 17.0609 5.50016 17.1548C5.50016 17.1548 5.85831 17.8759 7.60549 18.2212C7.63537 16.5243 7.77945 15.3693 8.40659 14.5094C8.76926 14.0121 9.26172 13.6722 9.80313 13.4281Z" fill="#646472"/>
</g>
<defs>
<clipPath id="clip0_146_217">
<rect width="16" height="16" fill="white" transform="translate(5.5 5.5)"/>
</clipPath>
</defs>
</svg>
