<svg width="34" height="34" viewBox="0 0 34 34" fill="none" xmlns="http://www.w3.org/2000/svg">
<g clip-path="url(#clip0_146_80)">
<path d="M15.5833 34C18.1488 34 20.2951 32.1711 20.7881 29.75H10.3784C10.8714 32.1711 13.0177 34 15.5833 34Z" fill="white"/>
<path d="M25.5171 16.9986C25.5114 16.9986 25.5057 17 25.5001 17C20.0332 17 15.5834 12.5517 15.5834 7.08337C15.5834 5.58029 15.9291 4.15937 16.5312 2.88154C16.2195 2.85179 15.9036 2.83337 15.5834 2.83337C10.1066 2.83337 5.66674 7.27321 5.66674 12.75V16.6997C5.66674 19.5033 4.43849 22.1496 2.28374 23.9715C1.56549 24.5849 1.24674 25.5624 1.50458 26.5158C1.80491 27.625 2.90141 28.3334 4.05174 28.3334H27.108C28.315 28.3334 29.4526 27.5514 29.6977 26.3685C29.8875 25.4533 29.5617 24.5395 28.8519 23.9431C26.7921 22.2162 25.6007 19.679 25.5171 16.9986V16.9986Z" fill="white"/>
<path d="M25.4998 14.1667C29.4119 14.1667 32.5832 10.9954 32.5832 7.08333C32.5832 3.17132 29.4119 0 25.4998 0C21.5878 0 18.4165 3.17132 18.4165 7.08333C18.4165 10.9954 21.5878 14.1667 25.4998 14.1667Z" fill="#32C58E"/>
</g>
<defs>
<clipPath id="clip0_146_80">
<rect width="34" height="34" fill="white"/>
</clipPath>
</defs>
</svg>
