<svg width="131" height="106" viewBox="0 0 131 106" fill="none" xmlns="http://www.w3.org/2000/svg">
<path d="M74.0003 61.6245C87.9877 61.6245 99.3278 47.8514 99.3278 30.862C99.3278 13.8721 95.6041 0.098999 74.0003 0.098999C52.3958 0.098999 48.6729 13.8721 48.6729 30.862C48.6732 47.8514 60.013 61.6245 74.0003 61.6245Z" fill="white" fill-opacity="0.05"/>
<path d="M121.784 107.353C121.315 77.7566 117.45 69.3232 87.8708 63.9846C87.8708 63.9846 83.7063 69.2901 74.0016 69.2901C64.2969 69.2901 60.1332 63.9846 60.1332 63.9846C30.8768 69.2645 26.7756 77.5732 26.2366 106.392C26.1928 108.745 26.1726 108.868 26.1646 108.595C26.1661 109.107 26.1684 110.054 26.1684 111.705C26.1684 111.705 33.2106 125.901 74.002 125.901C114.793 125.901 121.836 111.705 121.836 111.705C121.836 110.644 121.837 109.906 121.838 109.405C121.83 109.574 121.813 109.246 121.784 107.353Z" fill="white" fill-opacity="0.05"/>
<path d="M109.148 56.132C120.509 56.132 129.718 44.9458 129.718 31.1472C129.718 17.3481 126.694 6.16199 109.148 6.16199C106.197 6.16199 103.657 6.47954 101.472 7.07234C105.525 14.5435 106.08 23.6181 106.08 30.8616C106.08 39.0632 103.857 46.8935 99.7627 53.3769C102.577 55.1343 105.766 56.132 109.148 56.132Z" fill="white" fill-opacity="0.05"/>
<path d="M147.956 93.2721C147.575 69.2342 144.436 62.3848 120.412 58.0488C120.412 58.0488 117.03 62.3581 109.148 62.3581C108.822 62.3581 108.506 62.3482 108.195 62.3341C113.203 64.5921 117.759 67.736 121.114 72.3366C126.915 80.29 128.248 90.9741 128.523 106.67C144.686 103.476 147.999 96.8067 147.999 96.8067C147.999 95.9375 147.999 95.3413 148 94.9338C147.994 95.0771 147.98 94.8202 147.956 93.2721Z" fill="white" fill-opacity="0.05"/>
<path d="M38.8507 56.1321C42.2333 56.1321 45.4215 55.1344 48.2368 53.3774C44.1425 46.894 41.9192 39.0637 41.9192 30.8621C41.9192 23.6182 42.4746 14.5436 46.5266 7.07283C44.3422 6.48003 41.8029 6.16248 38.8507 6.16248C21.3043 6.16248 18.2812 17.3486 18.2812 31.1476C18.2813 44.9459 27.4908 56.1321 38.8507 56.1321Z" fill="white" fill-opacity="0.05"/>
<path d="M39.804 62.3334C39.4937 62.3475 39.1776 62.3574 38.8509 62.3574C30.9688 62.3574 27.587 58.0481 27.587 58.0481C3.56403 62.3841 0.424298 69.2331 0.0438403 93.2713C0.019061 94.8198 0.00648074 95.0764 0 94.9327C0.000762441 95.3402 0.00152488 95.9364 0.00152488 96.8056C0.00152488 96.8056 3.31433 103.475 19.4758 106.669C19.7522 90.9733 21.0849 80.2893 26.8859 72.3355C30.2407 67.7357 34.7959 64.5914 39.804 62.3334Z" fill="white" fill-opacity="0.05"/>
</svg>
