<svg width="27" height="27" viewBox="0 0 27 27" fill="none" xmlns="http://www.w3.org/2000/svg">
<circle cx="13.5" cy="13.5" r="13.5" fill="#171721"/>
<path d="M19.8394 7.70231C19.7323 7.59524 19.6053 7.54152 19.4585 7.54152C19.3118 7.54152 19.185 7.59524 19.0777 7.70231L17.9775 8.79427C17.3738 8.22432 16.6825 7.78271 15.9039 7.46963C15.1254 7.15652 14.3239 7 13.5001 7C11.9484 7 10.5943 7.46966 9.43755 8.40919C8.28079 9.3486 7.51911 10.5743 7.15234 12.0866V12.1458C7.15234 12.2191 7.17911 12.2826 7.23274 12.3362C7.28637 12.3898 7.34981 12.4166 7.42315 12.4166H9.10737C9.23155 12.4166 9.31613 12.3516 9.36131 12.2219C9.59826 11.6577 9.74772 11.3277 9.80986 11.2317C10.2048 10.5885 10.7295 10.0835 11.3841 9.7167C12.0387 9.34996 12.744 9.16652 13.5 9.16652C14.6342 9.16652 15.6188 9.55306 16.4539 10.3261L15.2857 11.494C15.1788 11.6012 15.125 11.7282 15.125 11.8749C15.125 12.0216 15.1788 12.1486 15.2857 12.2558C15.3931 12.363 15.5201 12.4166 15.6668 12.4166H19.4585C19.6052 12.4166 19.7322 12.363 19.8394 12.2558C19.9465 12.1486 20.0001 12.0217 20.0001 11.8749V8.08319C20.0001 7.93648 19.9468 7.80957 19.8394 7.70231Z" fill="#646472"/>
<path d="M19.5175 14.5834H17.8925C17.7684 14.5834 17.6837 14.6482 17.6387 14.778C17.4018 15.3423 17.2522 15.6722 17.1902 15.7681C16.7952 16.4112 16.2704 16.9164 15.616 17.2832C14.9614 17.65 14.2561 17.8332 13.5 17.8332C12.9528 17.8332 12.4252 17.7318 11.9174 17.5287C11.4096 17.3254 10.9553 17.0376 10.5548 16.6652L11.7143 15.5057C11.8215 15.3986 11.8751 15.2715 11.8751 15.1249C11.8751 14.9782 11.8215 14.8511 11.7143 14.744C11.6071 14.6367 11.4802 14.583 11.3335 14.583H7.54172C7.39492 14.583 7.26796 14.6367 7.16076 14.744C7.05357 14.8511 7 14.9782 7 15.1249V18.9166C7 19.0632 7.05357 19.1903 7.16079 19.2975C7.26808 19.4045 7.39504 19.4584 7.54175 19.4584C7.68844 19.4584 7.81534 19.4045 7.9226 19.2975L9.01438 18.2056C9.61815 18.781 10.3052 19.224 11.0754 19.5343C11.8456 19.8448 12.6425 19.9998 13.4663 19.9998C15.0124 19.9998 16.3609 19.5301 17.5119 18.5907C18.6629 17.6513 19.419 16.4254 19.7803 14.9132C19.786 14.902 19.7886 14.8822 19.7886 14.8541C19.7886 14.7806 19.7617 14.7174 19.7081 14.6636C19.6545 14.6103 19.591 14.5834 19.5175 14.5834Z" fill="#646472"/>
</svg>
