<svg width="54" height="54" viewBox="0 0 54 54" fill="none" xmlns="http://www.w3.org/2000/svg">
<circle cx="27" cy="27" r="27" fill="#243A3B"/>
<path d="M27.0001 26.7026C30.0244 26.7026 32.4764 23.7246 32.4764 20.0512C32.4764 16.3777 31.6712 13.3998 27.0001 13.3998C22.3289 13.3998 21.5239 16.3777 21.5239 20.0512C21.524 23.7246 23.9759 26.7026 27.0001 26.7026Z" fill="#4B6967"/>
<path d="M37.3317 36.5899C37.2303 30.1906 36.3946 28.3672 29.9991 27.2129C29.9991 27.2129 29.0987 28.36 27.0004 28.36C24.9021 28.36 24.0018 27.2129 24.0018 27.2129C17.6761 28.3545 16.7894 30.151 16.6728 36.382C16.6633 36.8908 16.659 36.9175 16.6572 36.8584C16.6576 36.9691 16.6581 37.1737 16.6581 37.5307C16.6581 37.5307 18.1807 40.6002 27.0005 40.6002C35.8202 40.6002 37.343 37.5307 37.343 37.5307C37.343 37.3014 37.3432 37.1418 37.3434 37.0335C37.3416 37.07 37.3381 36.9992 37.3317 36.5899Z" fill="#4B6967"/>
<path d="M34.5996 25.515C37.0559 25.515 39.0472 23.0964 39.0472 20.1129C39.0472 17.1293 38.3934 14.7107 34.5996 14.7107C33.9614 14.7107 33.4123 14.7794 32.9399 14.9075C33.8162 16.5229 33.9363 18.485 33.9363 20.0512C33.9363 21.8245 33.4556 23.5175 32.5703 24.9193C33.1788 25.2993 33.8683 25.515 34.5996 25.515Z" fill="#4B6967"/>
<path d="M42.9905 33.5453C42.9081 28.3479 42.2294 26.867 37.0351 25.9294C37.0351 25.9294 36.3039 26.8612 34.5996 26.8612C34.5291 26.8612 34.4608 26.859 34.3936 26.856C35.4764 27.3442 36.4615 28.024 37.1869 29.0187C38.441 30.7383 38.7293 33.0484 38.7888 36.4421C42.2835 35.7516 42.9997 34.3095 42.9997 34.3095C42.9997 34.1216 42.9997 33.9927 43 33.9046C42.9986 33.9356 42.9957 33.88 42.9905 33.5453Z" fill="#4B6967"/>
<path d="M19.4001 25.5151C20.1315 25.5151 20.8208 25.2993 21.4295 24.9194C20.5442 23.5176 20.0635 21.8246 20.0635 20.0513C20.0635 18.485 20.1836 16.523 21.0597 14.9076C20.5874 14.7795 20.0384 14.7108 19.4001 14.7108C15.6063 14.7108 14.9526 17.1294 14.9526 20.113C14.9526 23.0964 16.9439 25.5151 19.4001 25.5151Z" fill="#4B6967"/>
<path d="M19.6063 26.8559C19.5392 26.8589 19.4708 26.8611 19.4002 26.8611C17.696 26.8611 16.9648 25.9293 16.9648 25.9293C11.7706 26.8668 11.0917 28.3477 11.0095 33.5452C11.0041 33.88 11.0014 33.9354 11 33.9044C11.0002 33.9925 11.0003 34.1214 11.0003 34.3093C11.0003 34.3093 11.7166 35.7514 15.211 36.4419C15.2707 33.0483 15.5589 30.7382 16.8132 29.0185C17.5385 28.0239 18.5234 27.3441 19.6063 26.8559Z" fill="#4B6967"/>
</svg>
