<svg width="54" height="54" viewBox="0 0 54 54" fill="none" xmlns="http://www.w3.org/2000/svg">
<circle cx="27" cy="27" r="27" fill="#243A3B"/>
<path d="M27 12C18.7287 12 12 18.7287 12 27C12 35.2713 18.7287 42 27 42C35.2713 42 42 35.2713 42 27C42 18.7287 35.2713 12 27 12ZM34.1338 34.7586C33.89 35.0024 33.5701 35.1251 33.2501 35.1251C32.9301 35.1251 32.6099 35.0024 32.3664 34.7586L26.1163 28.5088C25.8812 28.2751 25.7501 27.9574 25.7501 27.6251V19.5C25.7501 18.8088 26.3099 18.2501 27 18.2501C27.6901 18.2501 28.2499 18.8088 28.2499 19.5V27.1076L34.1338 32.9912C34.6225 33.4801 34.6225 34.27 34.1338 34.7586Z" fill="#4B6967"/>
</svg>
