<svg width="54" height="54" viewBox="0 0 54 54" fill="none" xmlns="http://www.w3.org/2000/svg">
<circle cx="27" cy="27" r="27" fill="#243A3B"/>
<path d="M32.1298 25.2619C30.6386 24.4378 29.0532 23.8099 27.4836 23.1585C26.5732 22.7818 25.702 22.3423 24.9329 21.7301C23.4182 20.5215 23.7086 18.5594 25.4823 17.7825C25.9846 17.5627 26.5104 17.4921 27.0441 17.4607C29.1003 17.3508 31.0546 17.7275 32.9146 18.6222C33.8407 19.0696 34.1468 18.9283 34.4607 17.963C34.7903 16.9427 35.065 15.9067 35.3711 14.8786C35.5752 14.1879 35.324 13.7327 34.6726 13.4424C33.4797 12.9165 32.2553 12.5398 30.9682 12.3357C29.2887 12.0767 29.2887 12.0689 29.2808 10.3815C29.273 8.00349 29.273 8.00349 26.8871 8.00349C26.5418 8.00349 26.1965 7.99564 25.8511 8.00349C24.7367 8.03488 24.5483 8.23109 24.5169 9.35339C24.5012 9.85568 24.5169 10.358 24.5091 10.8681C24.5012 12.3593 24.4934 12.3357 23.065 12.8537C19.6118 14.1095 17.477 16.4639 17.2494 20.2311C17.0454 23.5666 18.7877 25.8191 21.5267 27.4594C23.2141 28.4718 25.082 29.0683 26.8714 29.861C27.5699 30.1671 28.237 30.5202 28.8178 31.0068C30.5366 32.4274 30.2226 34.7897 28.1821 35.6844C27.0912 36.1631 25.9375 36.2809 24.7524 36.1318C22.9237 35.9042 21.1736 35.4254 19.5254 34.5699C18.5601 34.0677 18.2775 34.2011 17.9479 35.2449C17.6654 36.1474 17.4142 37.0578 17.1631 37.9683C16.8256 39.1926 16.9512 39.483 18.1206 40.0559C19.6118 40.7779 21.205 41.1468 22.8296 41.4058C24.101 41.6099 24.1402 41.6648 24.1559 42.9833C24.1638 43.5798 24.1638 44.1841 24.1716 44.7806C24.1795 45.534 24.5405 45.9735 25.3175 45.9892C26.1965 46.0049 27.0833 46.0049 27.9623 45.9813C28.6844 45.9657 29.0532 45.5732 29.0532 44.8433C29.0532 44.0271 29.0925 43.2031 29.0611 42.3868C29.0218 41.5549 29.3829 41.1311 30.1834 40.9114C32.0277 40.4091 33.5974 39.4202 34.806 37.9447C38.1651 33.8636 36.8858 27.891 32.1298 25.2619Z" fill="#4B6967"/>
</svg>
